<svg width="47" height="47" fill="none" xmlns="http://www.w3.org/2000/svg"><g clip-path="url(#clip0)"><path d="M25.06 23.5h-7.71v11.197h7.71V23.5zM21.021.918L.918 21.021h3.03L22.535 2.433 21.021.918zm1.515 7.497L35.143 21.02l1.681-1.348L24.051 6.9l-1.515 1.515z" fill="#F1CD09"/><path d="M22.536 2.433L3.947 21.02H6.9L21.022 6.9l1.514 1.514L24.051 6.9l12.773 12.773 1.639-1.314L22.536 2.433z" fill="#C4C4C4"/><path d="M46.082 20.104L20.103 46.082h4.36l21.619-21.618v-4.36z" fill="#F1CD09"/><path d="M24.464 46.082h21.618V24.464L24.464 46.082z" fill="#C4C4C4"/><path d="M31.185 41.492h10.307V31.185L31.185 41.492zM18.02 37.634L37.3 18.355l3.57-1.307.988-2.697-6.267 2.295-19.28 19.279a2.81 2.81 0 001.048 4.634 2.809 2.809 0 01.662-2.925z" fill="#F1CD09"/><path d="M20.284 39.898l19.279-19.28 1.308-3.57-3.571 1.308-19.28 19.279a2.81 2.81 0 00-.66 2.925 2.81 2.81 0 002.924-.662z" fill="#C4C4C4"/><path d="M37.252 18.307l1.155 1.156 1.156 1.155 1.336-3.646-3.647 1.335z" fill="#C4C4C4"/><path d="M17.921 37.534l1.179-1.178-1.61-1.61-1.178 1.178a2.81 2.81 0 00.975 4.608 2.81 2.81 0 01.634-2.998z" fill="#F1CD09"/><path d="M21.021 19.92a2.57 2.57 0 100-5.14 2.57 2.57 0 000 5.14z" fill="#C4C4C4"/><path d="M33.781 14.596a.924.924 0 00.65-.27.925.925 0 00.268-.648.925.925 0 00-.269-.65.925.925 0 00-.649-.268.925.925 0 00-.649.269.924.924 0 00-.269.649.922.922 0 00.918.918zM13.77 25.887H6.426a.918.918 0 00-.918.918v7.343c0 .507.41.918.918.918h7.344a.918.918 0 00.918-.918v-7.343a.918.918 0 00-.918-.918zm-.918 7.343H7.343v-5.507h5.507v5.508zm33.581-13.974a.918.918 0 00-1 .198l-9.354 9.354v.001L25.173 39.713v.001l-5.72 5.719a.918.918 0 00.65 1.567h25.978a.918.918 0 00.918-.918V20.104a.918.918 0 00-.567-.848zm-1.269 25.908H22.32l3.503-3.503.876.876a.915.915 0 001.298 0 .918.918 0 000-1.298l-.876-.876 2.337-2.337.876.876a.915.915 0 001.298 0 .918.918 0 000-1.298l-.876-.876 2.337-2.337.876.876a.915.915 0 001.298 0 .918.918 0 000-1.298l-.876-.876 2.337-2.337.876.876a.915.915 0 001.298 0 .918.918 0 000-1.298l-.876-.876 2.336-2.337.877.876a.915.915 0 001.298 0 .918.918 0 000-1.298l-.876-.876 3.503-3.503v22.844z" fill="#fff"/><path d="M41.844 30.337a.918.918 0 00-1 .198l-10.31 10.308a.918.918 0 00.65 1.567h10.307a.918.918 0 00.918-.918V31.185a.918.918 0 00-.566-.848zm-1.27 10.238h-7.173l7.173-7.174v7.173zm-22.277 1.062c.955 0 1.91-.363 2.636-1.09l7.741-7.741a.918.918 0 10-1.298-1.298l-5.865 5.865-2.674-2.675 16.772-16.772 2.674 2.675-6.409 6.409a.918.918 0 101.298 1.298l7.04-7.04a.918.918 0 00.213-.333l2.295-6.268a.918.918 0 00-1.177-1.178l-6.268 2.296a.919.919 0 00-.334.213L33.18 17.76 21.67 6.252a.918.918 0 00-1.298 0L6.52 20.104H3.134L21.021 2.217l9.816 9.815a.918.918 0 101.298-1.298L21.671.27a.918.918 0 00-1.299 0L.27 20.373a.918.918 0 00.649 1.567h.918v24.143c0 .507.411.918.918.918h14.594a.918.918 0 000-1.837H3.672V21.94H6.9a.918.918 0 00.65-.269L21.02 8.2l10.86 10.859-13.614 13.613V24.42h6.426a.918.918 0 000-1.837H17.35a.918.918 0 00-.918.918V34.15c0 .107.019.21.053.305l-.823.822a3.731 3.731 0 000 5.271 3.715 3.715 0 002.635 1.09zm20.908-22.71l-1.922-1.923 3.033-1.11-1.11 3.032zM16.96 36.574l.579-.579 2.674 2.675-.578.578a1.878 1.878 0 01-1.337.554c-.505 0-.98-.197-1.337-.554a1.879 1.879 0 01-.554-1.337c0-.505.196-.98.553-1.337z" fill="#fff"/><path d="M29.609 29.274a.927.927 0 00-.27.649.923.923 0 001.567.65.929.929 0 00.27-.65.926.926 0 00-.27-.65.925.925 0 00-.648-.268.925.925 0 00-.65.269zM24.51 17.35a3.492 3.492 0 00-3.489-3.489 3.492 3.492 0 00-3.488 3.489 3.492 3.492 0 003.488 3.488 3.492 3.492 0 003.489-3.488zm-5.14 0a1.653 1.653 0 013.304 0c0 .91-.741 1.652-1.652 1.652a1.654 1.654 0 01-1.653-1.652z" fill="#fff"/></g><defs><clipPath id="clip0"><path fill="#fff" d="M0 0h47v47H0z"/></clipPath></defs></svg>