<svg width="47" height="47" viewBox="0 0 47 47" fill="none" xmlns="http://www.w3.org/2000/svg">
<g clip-path="url(#clip0)">
<path d="M25.0598 23.5H17.3496V34.6974H25.0598V23.5Z" fill="#F1CD09"/>
<path d="M21.0214 0.917969L0.917969 21.0214H3.94726L22.5361 2.43261L21.0214 0.917969Z" fill="#F1CD09"/>
<path d="M22.5361 8.41455L35.1428 21.0212L36.824 19.6731L24.0508 6.8999L22.5361 8.41455Z" fill="#F1CD09"/>
<path d="M22.5361 2.43262L3.94727 21.0215H6.90018L21.0215 6.90018L22.5361 8.41482L24.0507 6.90018L36.824 19.6734L38.4629 18.3594L22.5361 2.43262Z" fill="#C4C4C4"/>
<path d="M46.082 20.1035L20.1035 46.082H24.4639L46.082 24.4639V20.1035Z" fill="#F1CD09"/>
<path d="M24.4639 46.082H46.082V24.4639L24.4639 46.082Z" fill="#C4C4C4"/>
<path d="M31.1846 41.4923H41.4923V31.1846L31.1846 41.4923Z" fill="#F1CD09"/>
<path d="M18.0208 37.6344L37.2998 18.3554L40.8707 17.0477L41.8584 14.3506L35.5905 16.646L16.3115 35.925C15.2145 37.022 15.2145 38.8005 16.3115 39.8976C16.6175 40.2037 16.9767 40.4241 17.3592 40.5594C17.0094 39.5706 17.2299 38.4254 18.0208 37.6344Z" fill="#F1CD09"/>
<path d="M20.284 39.8977L39.5629 20.6187L40.8706 17.0479L37.2998 18.3556L18.0208 37.6345C17.2299 38.4256 17.0094 39.5708 17.3591 40.5595C18.3478 40.9091 19.493 40.6887 20.284 39.8977Z" fill="#C4C4C4"/>
<path d="M37.252 18.3071L38.4075 19.4628L39.5631 20.6183L40.8986 16.9717L37.252 18.3071Z" fill="#C4C4C4"/>
<path d="M17.9214 37.5344L19.0998 36.356L17.4899 34.7461L16.3115 35.9245C15.2145 37.0215 15.2145 38.8 16.3115 39.8971C16.5981 40.1837 16.9315 40.3947 17.2869 40.5316C16.9001 39.5269 17.1111 38.3448 17.9214 37.5344Z" fill="#F1CD09"/>
<path d="M21.0215 19.9199C22.441 19.9199 23.5918 18.7691 23.5918 17.3496C23.5918 15.9301 22.441 14.7793 21.0215 14.7793C19.6019 14.7793 18.4512 15.9301 18.4512 17.3496C18.4512 18.7691 19.6019 19.9199 21.0215 19.9199Z" fill="#C4C4C4"/>
<path d="M33.7812 14.5957C34.0227 14.5957 34.2595 14.4975 34.4302 14.3267C34.6009 14.156 34.6992 13.9192 34.6992 13.6777C34.6992 13.4363 34.601 13.1995 34.4302 13.0287C34.2595 12.858 34.0227 12.7598 33.7812 12.7598C33.5398 12.7598 33.303 12.858 33.1322 13.0287C32.9615 13.1995 32.8633 13.4354 32.8633 13.6777C32.8633 13.9192 32.9614 14.156 33.1322 14.3267C33.3031 14.4975 33.5398 14.5957 33.7812 14.5957Z" fill="white"/>
<path d="M13.7695 25.8867H6.42578C5.91888 25.8867 5.50781 26.2977 5.50781 26.8047V34.1484C5.50781 34.6554 5.91888 35.0664 6.42578 35.0664H13.7695C14.2764 35.0664 14.6875 34.6554 14.6875 34.1484V26.8047C14.6875 26.2977 14.2765 25.8867 13.7695 25.8867ZM12.8515 33.2305H7.34375V27.7227H12.8515V33.2305Z" fill="white"/>
<path d="M46.4333 19.2555C46.0902 19.1133 45.6953 19.192 45.4329 19.4544L36.079 28.8083C36.0789 28.8085 36.0787 28.8086 36.0785 28.8088C36.0783 28.8089 36.0782 28.809 36.0781 28.8092L25.1742 39.7132C25.174 39.7134 25.1739 39.7135 25.1737 39.7137C25.1735 39.7138 25.1734 39.7139 25.1732 39.7141L19.4544 45.433C19.192 45.6955 19.1134 46.0904 19.2554 46.4334C19.3975 46.7764 19.7322 47 20.1035 47H46.082C46.5889 47 46.9999 46.589 46.9999 46.0821V20.1036C46.9999 19.7324 46.7763 19.3976 46.4333 19.2555ZM45.164 45.1641H22.3197L25.8228 41.661L26.6991 42.5373C26.8784 42.7166 27.1133 42.8062 27.3482 42.8062C27.5831 42.8062 27.818 42.7166 27.9973 42.5373C28.3557 42.1789 28.3557 41.5976 27.9973 41.239L27.121 40.3627L29.4578 38.026L30.334 38.9022C30.5132 39.0815 30.7482 39.171 30.9831 39.171C31.218 39.171 31.4529 39.0814 31.6322 38.9022C31.9906 38.5437 31.9906 37.9625 31.6322 37.604L30.7559 36.7277L33.0926 34.3909L33.9689 35.2672C34.1482 35.4465 34.3831 35.5361 34.618 35.5361C34.8529 35.5361 35.0878 35.4465 35.2671 35.2672C35.6256 34.9087 35.6256 34.3275 35.2671 33.9689L34.3908 33.0926L36.7275 30.7559L37.6038 31.6322C37.7831 31.8115 38.018 31.9011 38.2529 31.9011C38.4878 31.9011 38.7227 31.8115 38.902 31.6322C39.2605 31.2738 39.2605 30.6925 38.902 30.334L38.0257 29.4577L40.3625 27.1209L41.2387 27.9971C41.418 28.1764 41.6529 28.266 41.8878 28.266C42.1227 28.266 42.3576 28.1763 42.5369 27.9971C42.8953 27.6386 42.8953 27.0574 42.5369 26.6989L41.6606 25.8226L45.164 22.3197V45.1641Z" fill="white"/>
<path d="M41.8437 30.3365C41.5006 30.1944 41.1057 30.273 40.8433 30.5355L30.5355 40.8433C30.2731 41.1059 30.1944 41.5007 30.3365 41.8437C30.4786 42.1868 30.8133 42.4104 31.1846 42.4104H41.4924C41.9993 42.4104 42.4103 41.9994 42.4103 41.4924V31.1847C42.4103 30.8134 42.1867 30.4787 41.8437 30.3365ZM40.5744 40.5745H33.4008L40.5744 33.4008V40.5745Z" fill="white"/>
<path d="M18.2975 41.637C19.2519 41.637 20.2065 41.2736 20.9329 40.5472L28.6743 32.8058C29.0328 32.4473 29.0328 31.866 28.6743 31.5076C28.3159 31.1491 27.7348 31.1491 27.3761 31.5076L21.511 37.3726L18.8367 34.6983L35.6086 17.9264L38.2829 20.6007L31.8741 27.0096C31.5156 27.3681 31.5156 27.9493 31.8741 28.3078C32.2327 28.6663 32.8137 28.6663 33.1724 28.3078L40.2119 21.2683C40.3062 21.1739 40.3789 21.0601 40.4247 20.9349L42.7201 14.6669C42.8431 14.3313 42.7601 13.9548 42.5074 13.7021C42.2546 13.4495 41.8785 13.3663 41.5426 13.4893L35.2746 15.7846C35.1493 15.8305 35.0356 15.9031 34.9411 15.9975L33.1787 17.7599L21.6705 6.25164C21.4983 6.07952 21.2649 5.98276 21.0214 5.98276C20.778 5.98276 20.5445 6.07952 20.3723 6.25164L6.51994 20.104H3.1342L21.0214 2.21671L30.8372 12.0324C31.1957 12.3909 31.7768 12.3909 32.1354 12.0324C32.4939 11.674 32.4939 11.0927 32.1354 10.7342L21.6706 0.269338C21.3121 -0.0891282 20.731 -0.0891282 20.3723 0.269338L0.268859 20.3728C0.00641215 20.6354 -0.0721658 21.0302 0.0698437 21.3732C0.211945 21.7164 0.546636 21.94 0.917953 21.94H1.83592V46.0825C1.83592 46.5895 2.24699 47.0005 2.75389 47.0005H17.3483C17.8552 47.0005 18.2662 46.5895 18.2662 46.0825C18.2662 45.5755 17.8552 45.1645 17.3483 45.1645H3.67185V21.94H6.90016C7.14361 21.94 7.37704 21.8432 7.54925 21.6711L21.0214 8.19892L31.8804 19.058L18.2675 32.671V24.4185H24.6933C25.2002 24.4185 25.6113 24.0075 25.6113 23.5005C25.6113 22.9935 25.2002 22.5825 24.6933 22.5825H17.3496C16.8427 22.5825 16.4316 22.9935 16.4316 23.5005V34.1489C16.4316 34.2561 16.4509 34.3583 16.4846 34.4539L15.6622 35.2763C14.209 36.7294 14.209 39.0939 15.6622 40.5471C16.3888 41.2737 17.343 41.6371 18.2975 41.637ZM39.2051 18.9263L37.283 17.0042L40.3158 15.8936L39.2051 18.9263ZM16.9604 36.5746L17.5386 35.9964L20.2129 38.6707L19.6347 39.2489C19.2776 39.6061 18.8028 39.8028 18.2976 39.8028C17.7925 39.8028 17.3176 39.6061 16.9605 39.2489C16.6033 38.8917 16.4066 38.4168 16.4066 37.9118C16.4066 37.4067 16.6032 36.9317 16.9604 36.5746Z" fill="white"/>
<path d="M29.6088 29.2738C29.4381 29.4455 29.3398 29.6814 29.3398 29.9228C29.3398 30.1652 29.438 30.4011 29.6088 30.5728C29.7795 30.7435 30.0155 30.8408 30.2578 30.8408C30.4992 30.8408 30.7361 30.7435 30.9067 30.5728C31.0775 30.4011 31.1758 30.1643 31.1758 29.9228C31.1758 29.6814 31.0776 29.4455 30.9067 29.2738C30.7361 29.1031 30.4992 29.0049 30.2578 29.0049C30.0164 29.0049 29.7795 29.1031 29.6088 29.2738Z" fill="white"/>
<path d="M24.5098 17.3496C24.5098 15.4262 22.9449 13.8613 21.0215 13.8613C19.0981 13.8613 17.5332 15.4262 17.5332 17.3496C17.5332 19.273 19.0981 20.8379 21.0215 20.8379C22.9449 20.8379 24.5098 19.273 24.5098 17.3496ZM19.3691 17.3496C19.3691 16.4385 20.1104 15.6973 21.0215 15.6973C21.9326 15.6973 22.6738 16.4385 22.6738 17.3496C22.6738 18.2607 21.9326 19.0019 21.0215 19.0019C20.1104 19.0019 19.3691 18.2608 19.3691 17.3496Z" fill="white"/>
</g>
<defs>
<clipPath id="clip0">
<rect width="47" height="47" fill="white"/>
</clipPath>
</defs>
</svg>
